<?xml version="1.0" encoding="iso-8859-1"?>
<!-- Generator: Adobe Illustrator 19.0.0, SVG Export Plug-In . SVG Version: 6.00 Build 0)  -->
<svg xmlns="http://www.w3.org/2000/svg" xmlns:xlink="http://www.w3.org/1999/xlink" version="1.1" id="Capa_1" x="0px" y="0px" viewBox="0 0 512 512" style="enable-background:new 0 0 512 512;" xml:space="preserve" width="512px" height="512px">
<g>
	<g>
		<path d="M449.412,241.004L449.412,241.004H512l-2.092-16.841C494.045,96.438,384.889,0.121,256,0.121S17.953,96.438,2.091,224.163    L0,241.004h62.586v29.992H0l2.091,16.841C17.953,415.562,127.11,511.879,255.999,511.879s238.045-96.318,253.908-224.042    l2.092-16.841h-62.587V241.004z M477.411,211.018H300.978V96.277c32.193,9.05,60.779,27.626,82.22,53.288h-34.186v29.986h89.241    l-13.293-22.594c-5.44-9.248-11.57-17.951-18.297-26.066l21.318-21.318C452.266,138.02,469.674,172.644,477.411,211.018z     M34.588,211.018c7.737-38.373,25.145-72.998,49.432-101.446l21.318,21.318c-6.728,8.114-12.857,16.817-18.298,26.066    L73.746,179.55h89.241v-29.986H128.8c21.442-25.662,50.027-44.238,82.22-53.288v114.742H34.588z M34.588,300.982h176.434v114.742    c-32.193-9.05-60.778-27.626-82.22-53.288h34.187V332.45H73.746l13.293,22.594c5.44,9.249,11.57,17.951,18.298,26.066    l-21.318,21.318C59.733,373.98,42.325,339.355,34.588,300.982z M256,481.893c-57.635,0-110.796-21.814-151.051-57.989    l21.241-21.241c27.174,24.113,60.731,40.406,97.347,46.54l17.471,2.927V270.996H92.572v-29.992h148.434V59.871l-17.471,2.927    c-36.615,6.134-70.173,22.426-97.346,46.54l-21.241-21.241c40.255-36.176,93.416-57.99,151.052-57.99    c57.635,0,110.796,21.814,151.051,57.989l-21.242,21.242c-27.174-24.114-60.732-40.406-97.347-46.54l-17.471-2.927v181.133    h148.435v29.992H270.993v181.133l17.471-2.927c36.615-6.134,70.173-22.426,97.346-46.54l21.241,21.241    C366.795,460.08,313.635,481.893,256,481.893z M477.411,300.982c-7.738,38.373-25.145,72.998-49.432,101.446l-21.318-21.318    c6.728-8.114,12.857-16.817,18.297-26.066l13.293-22.594h-89.241v29.986h34.186c-21.441,25.662-50.027,44.238-82.219,53.288    V300.982H477.411z" fill="#8f8f8f"/>
	</g>
</g>
<g>
</g>
<g>
</g>
<g>
</g>
<g>
</g>
<g>
</g>
<g>
</g>
<g>
</g>
<g>
</g>
<g>
</g>
<g>
</g>
<g>
</g>
<g>
</g>
<g>
</g>
<g>
</g>
<g>
</g>
</svg>
